<svg xmlns="http://www.w3.org/2000/svg" viewBox="0 0 180 180" role="img" aria-label="CashControl">
  <rect width="180" height="180" rx="36" fill="#0f766e"/>
  <path fill="#f6f1e8" d="M46 50c0-10 8-18 18-18h52c10 0 18 8 18 18v80c0 10-8 18-18 18H64c-10 0-18-8-18-18V50Z"/>
  <path fill="#0f766e" d="M66 56h48v24H66V56Zm8 46c0-7 5-12 12-12h20c7 0 12 5 12 12s-5 12-12 12H86c-7 0-12-5-12-12Zm-8 30c0-5 4-9 9-9h42c5 0 9 4 9 9s-4 9-9 9H75c-5 0-9-4-9-9Z"/>
  <circle cx="125" cy="113" r="20" fill="#d97706"/>
</svg>
