<svg xmlns="http://www.w3.org/2000/svg" viewBox="0 0 512 512" role="img" aria-label="CashControl">
  <rect width="512" height="512" rx="96" fill="#0f766e"/>
  <path fill="#f6f1e8" d="M128 151c0-26 21-47 47-47h162c26 0 47 21 47 47v210c0 26-21 47-47 47H175c-26 0-47-21-47-47V151Z"/>
  <path fill="#0f766e" d="M176 168c0-10 8-18 18-18h124c10 0 18 8 18 18v38c0 10-8 18-18 18H194c-10 0-18-8-18-18v-38Zm24 104c0-13 11-24 24-24h64c13 0 24 11 24 24v8c0 13-11 24-24 24h-64c-13 0-24-11-24-24v-8Zm-24 92c0-11 9-20 20-20h120c11 0 20 9 20 20s-9 20-20 20H196c-11 0-20-9-20-20Z"/>
  <circle cx="346" cy="302" r="46" fill="#d97706"/>
  <path fill="#fff9f0" d="M348 273c8 0 15 3 21 8 4 4 4 11 0 15s-11 4-15 0c-2-2-4-2-6-2-7 0-13 6-13 13s6 13 13 13c2 0 5-1 7-3 4-4 11-4 15 1s3 11-1 15c-6 5-13 8-21 8-19 0-34-15-34-34s15-34 34-34Z"/>
</svg>
