<svg xmlns="http://www.w3.org/2000/svg" viewBox="0 0 512 512" role="img" aria-label="CashControl">
  <rect width="512" height="512" fill="#0f766e"/>
  <circle cx="256" cy="256" r="196" fill="#f6f1e8"/>
  <path fill="#0f766e" d="M156 164c0-18 14-32 32-32h136c18 0 32 14 32 32v184c0 18-14 32-32 32H188c-18 0-32-14-32-32V164Zm52 18v48h96v-48h-96Zm8 104c0 12 10 22 22 22h36c12 0 22-10 22-22s-10-22-22-22h-36c-12 0-22 10-22 22Zm-8 54c-10 0-18 8-18 18s8 18 18 18h96c10 0 18-8 18-18s-8-18-18-18h-96Z"/>
  <circle cx="338" cy="318" r="50" fill="#d97706"/>
  <path fill="#fff9f0" d="M340 286c8 0 16 3 22 8 4 4 4 11 0 15s-11 4-15 1c-2-2-4-3-7-3-7 0-13 6-13 13s6 13 13 13c3 0 5-1 7-3 4-4 11-4 15 1 4 4 3 11-1 15-6 5-13 8-21 8-19 0-34-15-34-34s15-34 34-34Z"/>
</svg>
